# 3ds Max Wavefront OBJ Exporter v0.97b - (c)2007 guruware
# File Created: 27.04.2012 14:45:40

mtllib Window.mtl

#
# object WINDOW
#

v  -6.9710 1.2519 2.2345
v  -6.9710 1.2519 2.1663
v  -5.2818 1.2519 2.1663
v  -5.2818 1.2519 2.2345
v  -6.9710 3.6903 2.2345
v  -6.9710 3.6903 2.1663
v  -5.2818 3.6903 2.2345
v  -5.2818 3.6903 2.1663
v  -5.3068 3.6653 2.2345
v  -5.3068 3.6653 2.1663
v  -5.3068 1.2769 2.1663
v  -5.3068 1.2769 2.2345
v  -6.9460 3.6653 2.2345
v  -6.9460 3.6653 2.1663
v  -6.9460 1.2769 2.2345
v  -6.9460 1.2769 2.1663
v  -5.2818 1.2519 2.0980
v  -3.5927 1.2519 2.0980
v  -3.5927 1.2519 2.1663
v  -5.2818 3.6903 2.0980
v  -3.5927 3.6903 2.1663
v  -3.5927 3.6903 2.0980
v  -3.6177 3.6653 2.1663
v  -3.6177 3.6653 2.0980
v  -3.6177 1.2769 2.0980
v  -3.6177 1.2769 2.1663
v  -5.2568 3.6653 2.1663
v  -5.2568 3.6653 2.0980
v  -5.2568 1.2769 2.1663
v  -5.2568 1.2769 2.0980
# 30 vertices

vn 0.0000 -1.0000 -0.0000
vn -1.0000 0.0000 -0.0000
vn 0.0000 1.0000 -0.0000
vn 1.0000 0.0000 -0.0000
vn 0.0000 0.0000 -1.0000
vn 0.0000 0.0000 1.0000
# 6 vertex normals

g WINDOW
usemtl wire_132132132
s off
f 1//1 2//1 3//1 4//1 
f 5//2 6//2 2//2 1//2 
f 7//3 8//3 6//3 5//3 
f 4//4 3//4 8//4 7//4 
f 9//2 10//2 11//2 12//2 
f 13//1 14//1 10//1 9//1 
f 15//4 16//4 14//4 13//4 
f 12//3 11//3 16//3 15//3 
f 16//5 11//5 8//5 3//5 
f 16//5 3//5 2//5 6//5 
f 14//5 16//5 6//5 10//5 
f 10//5 6//5 8//5 11//5 
f 12//6 15//6 5//6 1//6 
f 12//6 1//6 4//6 7//6 
f 9//6 12//6 7//6 13//6 
f 13//6 7//6 5//6 15//6 
f 3//1 17//1 18//1 19//1 
f 8//2 20//2 17//2 3//2 
f 21//3 22//3 20//3 8//3 
f 19//4 18//4 22//4 21//4 
f 23//2 24//2 25//2 26//2 
f 27//1 28//1 24//1 23//1 
f 29//4 30//4 28//4 27//4 
f 26//3 25//3 30//3 29//3 
f 30//5 25//5 22//5 18//5 
f 30//5 18//5 17//5 20//5 
f 28//5 30//5 20//5 24//5 
f 24//5 20//5 22//5 25//5 
f 26//6 29//6 8//6 3//6 
f 26//6 3//6 19//6 21//6 
f 23//6 26//6 21//6 27//6 
f 27//6 21//6 8//6 29//6 
# 32 polygons

#
# object Object001
#

v  -3.6140 3.6653 2.1281
v  -3.6140 1.2769 2.1281
v  -5.2605 1.2769 2.1281
v  -5.2605 3.6653 2.1281
v  -5.2605 3.6761 2.1472
v  -5.2605 1.2661 2.1472
v  -3.6140 1.2661 2.1472
v  -3.6140 3.6761 2.1472
v  -5.3015 3.6653 2.1964
v  -5.3015 1.2769 2.1964
v  -6.9513 1.2769 2.1964
v  -6.9513 3.6653 2.1964
v  -6.9513 3.6809 2.2155
v  -6.9513 1.2614 2.2155
v  -5.3015 1.2614 2.2155
v  -5.3015 3.6809 2.2155
# 16 vertices

vn 0.0000 0.0000 -1.0000
vn 0.0000 -0.0000 1.0000
vn 0.0000 -0.8716 -0.4901
vn -1.0000 0.0000 -0.0000
vn 0.0000 0.8716 -0.4901
vn 1.0000 0.0000 -0.0000
vn 0.0000 0.0000 1.0000
vn 0.0000 -0.7762 -0.6305
vn 0.0000 0.7762 -0.6305
# 9 vertex normals

g Object001
usemtl wire_132132132
s off
f 31//7 32//7 33//7 34//7 
f 35//8 36//8 37//8 38//8 
f 36//9 33//9 32//9 37//9 
f 35//10 34//10 33//10 36//10 
f 38//11 31//11 34//11 35//11 
f 37//12 32//12 31//12 38//12 
f 39//7 40//7 41//7 42//7 
f 43//13 44//13 45//13 46//13 
f 44//14 41//14 40//14 45//14 
f 43//10 42//10 41//10 44//10 
f 46//15 39//15 42//15 43//15 
f 45//12 40//12 39//12 46//12 
# 12 polygons

